<?xml version="1.0" encoding="UTF-8"?>
<!DOCTYPE svg PUBLIC "-//W3C//DTD SVG 1.1//EN" "http://www.w3.org/Graphics/SVG/1.1/DTD/svg11.dtd">
<!-- Creator: CorelDRAW 2021 (64-Bit) -->
<svg xmlns="http://www.w3.org/2000/svg" xml:space="preserve" width="107.691mm" height="31.2294mm" version="1.1" style="shape-rendering:geometricPrecision; text-rendering:geometricPrecision; image-rendering:optimizeQuality; fill-rule:evenodd; clip-rule:evenodd"
viewBox="0 0 10768 3122.63"
 xmlns:xlink="http://www.w3.org/1999/xlink"
 xmlns:xodm="http://www.corel.com/coreldraw/odm/2003">
 <defs>
  <style type="text/css">
   <![CDATA[
    .fil2 {fill:none}
    .fil0 {fill:#CB7205}
    .fil1 {fill:white}
    .fil3 {fill:white;fill-rule:nonzero}
   ]]>
  </style>
     <clipPath id="id0">
      <path d="M762.43 0l451.63 0 -1009.8 2795.72c-123.29,-86.64 -204.26,-229.9 -204.26,-391.17l0 -293.68 762.43 -2110.87zm903.26 0l451.63 0 -1041.1 2882.41 -451.64 0 1041.11 -2882.41zm893.87 25.99c163.61,56.55 287.65,199.86 316.44,374.24l-896.54 2482.18 -451.63 0 1031.73 -2856.42zm322.83 1606.95l0 771.61c0,253.82 -200.55,463.02 -451.02,477.07l451.02 -1248.69zm-2882.4 -772.42l0 -382.67c0,-199.31 123.67,-371.09 298.05,-442.5l-298.05 825.17z"/>
     </clipPath>
      <clipPath id="id1">
       <path d="M118.77 2718.94c-73.85,-84.18 -118.77,-194.28 -118.77,-314.39l0 -293.68 118.77 -328.82 0 936.89zm0 -2555.47l0 368.22 -118.77 328.82 0 -382.67c0,-120.11 44.92,-230.2 118.77,-314.37z"/>
      </clipPath>
      <clipPath id="id2">
       <path d="M762.43 0l451.63 0 -1009.8 2795.72c-123.29,-86.64 -204.26,-229.9 -204.26,-391.17l0 -293.68 762.43 -2110.87zm903.26 0l451.63 0 -1041.1 2882.41 -451.64 0 1041.11 -2882.41zm893.87 25.99c163.61,56.55 287.65,199.86 316.44,374.24l-896.54 2482.18 -451.63 0 1031.73 -2856.42zm322.83 1606.95l0 771.61c0,253.82 -200.55,463.02 -451.02,477.07l451.02 -1248.69zm-2882.4 -772.42l0 -382.67c0,-199.31 123.67,-371.09 298.05,-442.5l-298.05 825.17z"/>
      </clipPath>
 </defs>
 <g id="Layer_x0020_1">
  <metadata id="CorelCorpID_0Corel-Layer"/>
  <g id="_2198927587792">
   <g>
    <path class="fil0" d="M762.43 0l451.63 0 -1009.8 2795.72c-123.29,-86.64 -204.26,-229.9 -204.26,-391.17l0 -293.68 762.43 -2110.87zm903.26 0l451.63 0 -1041.1 2882.41 -451.64 0 1041.11 -2882.41zm893.87 25.99c163.61,56.55 287.65,199.86 316.44,374.24l-896.54 2482.18 -451.63 0 1031.73 -2856.42zm322.83 1606.95l0 771.61c0,253.82 -200.55,463.02 -451.02,477.07l451.02 -1248.69zm-2882.4 -772.42l0 -382.67c0,-199.31 123.67,-371.09 298.05,-442.5l-298.05 825.17z"/>
    <g style="clip-path:url(#id0)">
     <g>
     </g>
     <g style="clip-path:url(#id1)">
      <image x="-3029.07" y="-1330.6" width="3147.84" height="5080.1" xlink:href="WHITE & ORANGE SVG_Images\WHITE & ORANGE SVG_ImgID1.png"/>
     </g>
     <g style="clip-path:url(#id2)">
      <path class="fil1" d="M1833.93 1228.08c124.5,-35.37 282.41,30.43 282.41,197.46l0 917.36 481.85 0 0 -917.36c0,-517.71 -437.24,-742.8 -822.28,-678.86 -0.28,-6.7 -0.71,-12.96 -0.62,-20.42 0.04,-4.87 0.81,-8.21 0.81,-14.12 -0.01,-5.44 0.03,-10.08 -0.56,-14.39 -1.31,-9.48 0.62,-20.26 0.56,-28.9 -0.04,-10.49 -0.78,-18.17 -0.78,-28.34 0,-10.19 1.99,-22.65 0.45,-32.74 -0.71,-4.72 -0.91,-10.9 -0.35,-15.97 1.32,-11.63 -0.15,-26.4 -0.1,-37.91 0,-8.08 0.78,-13.58 0.78,-22.05 0,-11.55 -1.67,-23.43 -0.22,-34.07 1.45,-10.44 -0.56,-23.75 -0.56,-34.45 0,-11.5 1.72,-23.02 0.22,-34.05 -0.5,-3.52 -0.48,-13.38 -0.18,-17.07 0.95,-11.58 -0.03,-25.21 -0.04,-37.04 -0.03,-7.23 0.78,-12.55 0.78,-20.47 0,-11.55 -1.67,-23.43 -0.22,-34.07 1.45,-10.43 -0.56,-573.37 -0.56,-584.04 0,-10.71 1.95,-22.74 0.33,-33.39 -1.51,-9.98 0.45,-23.03 0.45,-33.53 0,-10.48 -0.78,-18.93 -0.78,-29.93 -8.74,-2.02 -47.28,-0.8 -59.03,-0.8 -2.42,0 -4.73,0.74 -4.73,3.16l0 1148.73c-2.17,0.19 -1.73,0.06 -3.16,0.79l-13.71 -49.28c-0.7,-2.73 -1.29,-4.71 -1.86,-6.8 -0.82,-2.9 -1.5,-4.44 -2.19,-7.25 -0.72,-2.88 -0.81,-4.37 -1.7,-6.97 -1.15,-3.28 -1.21,-3.81 -1.87,-7.57l-9.99 -34.12c-0.8,-3.2 -1.65,-4.69 -2.38,-7.06 -1.6,-5.11 -0.45,-4.08 -2.94,-10.43l-8.74 -31.42c-0.91,-3.01 -1.33,-3.54 -1.86,-6.81l-8.18 -27.26c-1.55,-4.75 -2.23,-9.48 -3.84,-14.24 -1.02,-3.01 -0.87,-3.8 -1.57,-7.12 -0.72,-3.81 -1.16,-3.06 -2.95,-5.72l-44.09 -0.54c-1.9,0.02 -2.4,0.54 -5.51,0.54l-19.68 0c-3.09,0 -3.59,-0.52 -5.51,-0.52 -1.92,0 -2.4,0.54 -5.5,0.52l-9.46 -0.52c-1.92,0 -2.4,0.52 -5.52,0.52l-29.9 0c-3.79,0 -5.38,-0.69 -7.87,-0.69 -2.51,0 -4.07,0.69 -7.88,0.69l-16.52 0c-3.13,0 -3.6,-0.52 -5.51,-0.52 -1.92,0 -2.42,0.52 -5.54,0.52l-33.05 0c-3.01,0 -2.51,-0.48 -4.63,-0.43l-40.25 0.43c-3.1,0 -3.6,-0.52 -5.5,-0.52 -1.92,0 -2.42,0.54 -5.52,0.52 -4.4,0 -8,-0.72 -11.99,-0.22 -3.05,0.38 -6.13,0.24 -9.26,0.22l-127.54 0c-3.08,4.6 -3.16,8 -4.8,13.32l-10.46 36.5c-0.5,0.96 -1.02,1.56 -1.58,3.44 -0.63,2.14 -0.75,4.09 -1.2,6.28l-0.05 0.14 -0.03 0.12 -3.31 11.52 -6.79 23.31c-1.57,3.61 -1.96,6.8 -2.88,10.41l-0.05 0.21 -0.77 2.69 -0.06 0.25 -0.08 0.22c-0.39,1.18 -0.69,2.31 -0.98,3.43l-0.04 0.21 -3.86 13.43 -0.09 0.3 -0.11 0.33 -0.07 0.3 -0.09 0.34 -0.11 0.31 -0.07 0.31 -0.09 0.31 -0.09 0.32 -3.45 12.03 -0.92 2.2c-1.54,3.35 -0.91,3.11 -1.32,5.6l-1.13 3.93c-0.44,0.85 -0.89,1.24 -1.53,3.8l-5.23 19.8 -3.69 12.86c-0.07,0.09 -0.21,0.3 -0.6,1.14 -1.35,2.97 -0.8,3.94 -1.72,6.92 -0.91,2.87 -1.29,3.05 -2.01,6.66l-0.32 1.55 -1.8 6.22c-0.73,1.68 -1.72,3.18 -3.19,4.25 -2.21,-9.43 -0.79,-25.89 -0.79,-37l0 -1107.79c-8.78,-2.04 -48.68,-0.8 -60.61,-0.79 -5.16,-0.01 -3.16,12.13 -3.16,15.76l0 1091.65c-386.07,-63.02 -825.12,162.14 -825.12,679.14l0 478.75 487.03 0 0 -478.75c0,-165.7 154.49,-231.8 277.79,-198.34l-13.84 48.31c-0.62,1.86 -1.05,3.25 -1.27,4.4l0 0.08c-0.62,3.13 0.36,4.59 3.52,10.25l8.01 14.02c5.08,7.64 12.42,19.17 19.47,30.61l143.57 254c-0.2,30.9 -0.71,106.63 0.12,113.54 0.38,3.25 1.65,4.55 2.49,8.54 3.8,18.06 19.73,35.64 36.22,42.5 8.24,3.43 17.43,5.73 27.36,5.73l62.36 -0.26c2.87,0.37 5.57,0.26 8.48,0.26 4.88,-0.01 31.22,-1.31 33.23,1.39 2.21,2.93 1.74,27.13 2.24,33.19 0.36,4.39 0.95,11.64 1.42,15.92 0.91,8.68 1.54,23.28 3.92,30.7l3.55 14.56c1.56,4.7 2.39,8.72 3.96,13.37l20.8 45.33c3.75,7.32 11.09,15.89 16.37,22.22 5.33,6.43 11.56,12.08 17.44,17.99 6.53,6.56 14.94,11.52 21.92,17.45l38.01 27.31c10.27,8.63 19.83,19.16 26.95,30.52l4.69 7.92c9.72,16.96 6.15,14.25 10.2,24.44 2.04,5.09 2.21,8.83 3.68,13.66 2.58,8.51 1.84,19.68 1.82,28.87 0.02,8.12 -3.85,23.54 -7.22,31.35 -3.49,8.16 -8.63,16.72 -14.19,23.6 -5.55,6.84 -12.38,13.19 -19.62,18.17 -5.29,3.62 -9.68,6.84 -15.87,9.31l-22.98 8.54c-1.39,0.38 -4.55,0.8 -5.37,0.92 -23.27,3.72 -50.33,4.99 -72.25,-5.23 -1.95,-0.91 -3.22,-0.98 -5.35,-1.72 -10.09,-3.57 -26.38,-15.78 -33.15,-23.54l-4.04 -4.62c-0.12,-0.12 -0.28,-0.29 -0.39,-0.41l-1.98 -1.95c-6.56,-7.44 -15.71,-20.32 -19.68,-29.13 -1.57,-3.51 -2.95,-5.77 -5.22,-8.95 -4.29,-6.12 -7.75,-16.78 -11.42,-24.02l-17.05 -38.86c-0.97,-2.34 -1.02,-1.78 -2.09,-4.2 -4.88,-10.82 -12.11,-27.15 -19.01,-36.88 -1.21,-1.71 -1.62,-2.6 -2.82,-4.29 -6.13,-8.63 -14.51,-19.64 -23.42,-25.37 -12.61,-8.13 -26.47,-14.21 -41.69,-14.21 -9.81,0.02 -19.43,-0.57 -27.81,4.48 -13.34,8.07 -8.88,28.05 -6.84,40.4 0.59,3.57 1.15,5.59 2.01,9.03 2.97,11.89 7.24,23.21 9.72,35.14l6.73 27.13c0.74,3.49 0.3,6.92 1.03,9.98 0.9,3.87 1.34,4.71 1.84,9.2 0.67,6.11 1.54,13.76 1.51,20.53 -0.09,14.34 1.47,27.9 2.35,42.52l4.53 29.34c0.88,3.7 1.42,4.41 2.1,8.9 0.18,1.07 0.52,3.63 0.82,4.7l5.74 17.1c0.62,1.68 1.1,2.39 1.65,3.84 2.01,5.2 3.17,11.24 5.68,16.37l12.97 25.62 20.62 29.77c8.04,10.89 17.96,20.52 27.84,29.63 0.14,0.11 0.29,0.26 0.42,0.38l37.02 27.51c2.72,1.46 4.28,2.76 6.71,4.32 4.67,2.98 10.36,5 15.16,7.68l7.33 3.67c10.01,5.1 21.17,8.5 31.7,12.4 2.83,1.04 5.41,1.34 8.39,2.66 3.92,1.71 5.34,0.91 8.96,2.04 2.97,0.95 1.23,1.01 4.39,1.92l33.18 5.42c7.15,0.87 10.83,2.12 19.9,2.11 4.75,0.01 5.7,0.78 10.19,0.86l21.3 -0.06c18.53,0 61.08,-5.35 80.96,-12.67l12.24 -4.31c7.09,-2.02 17.93,-5.44 24.02,-9.07 1.83,-1.09 3.83,-1.86 5.75,-2.9 3.79,-2.05 7.48,-3.19 11.36,-5.14 2.66,-1.34 2.65,-1.71 5.69,-3.01 3.81,-1.64 6.98,-4.58 10.56,-6.75l10.27 -6.29c2.11,-1.32 3.03,-2.15 5.11,-3.54 6.22,-4.26 12.99,-9.28 18.45,-14.6 3.15,-3.04 5.68,-4.84 8.65,-7.87l12.27 -12.94c0.11,-0.12 0.26,-0.31 0.36,-0.41l11.72 -13.5c8.28,-11.34 13.3,-17.93 20.28,-30.09l16.21 -34.2 11.2 -38.4c1.93,-12.62 1.74,-5.51 3.44,-22.53 0.18,-1.73 0.99,-5.03 1.26,-6.59 2.67,-15.02 1.8,-33.6 1.8,-49.41l-0.77 -17.32c0.06,-7.8 -1.68,-10.67 -2.29,-16.63 -0.71,-7.24 -0.44,-11.06 -2.14,-17.53 -0.77,-2.96 -0.91,-4.78 -1.58,-7.88 -2.08,-9.88 -4.64,-20.93 -8.19,-30.39 -2.88,-7.76 -11.86,-30.55 -15.76,-36.96l-5.44 -8.75c-7.11,-11.79 -14.41,-22.93 -23.22,-33.48l-2.72 -2.78c-0.71,-0.74 -1.5,-1.59 -2.27,-2.45l-23.61 -23.63 -26.27 -21.75c-2.13,-1.6 -3.54,-2.18 -5.61,-3.84l-33.65 -24.64c-3.79,-2.88 -7.25,-4.64 -11.35,-7.49l-21.39 -16.43c-16.41,-12.91 -30.59,-26.83 -42.85,-43.76 -4.58,-6.31 -6.13,-11.13 -8.84,-14.77l-8.95 -24.12c-0.72,-3.21 -1.65,-4.55 -1.89,-7.55 1.65,-1.1 1.18,-1.36 3.55,-1.89l35.81 0.32c3.03,0 2.51,-0.53 4.61,-0.47 1.02,0.02 2.12,0.47 4.07,0.46l36.99 0.01c3,0 2.52,-0.53 4.62,-0.47 15.15,0.35 28.48,-0.12 41.48,-7.77 18.55,-10.93 20.74,-16.87 30.17,-35.17 0.63,-1.21 0.63,-0.56 1.3,-2.63 6.14,-19.39 0.68,-133.07 2.9,-144.31 0.48,-2.36 9.69,-17.6 12.29,-21.54l16.34 -27c1.13,-1.84 2.22,-3.63 3.37,-5.29l32.86 -52.95c3.19,-4.45 6.05,-11.08 9.66,-16.31l9.72 -16.27c1.06,-2.01 1.87,-3.61 3.2,-5.45l61.04 -98.76c0.4,-0.75 0.71,-1.75 1.18,-2.75 3.34,-6.71 7.98,-12.5 11.67,-19.06l3.3 -5.36c6.5,-11.13 9.04,-12.13 7.19,-20.27 -2.2,-9.62 -8.14,-25.28 -9.6,-33.74 -0.98,-5.67 -2.4,-7.86 -3.82,-13.5 -0.29,-1.13 -0.53,-1.9 -0.76,-2.51zm-392.73 -320.48c65.77,0 119.1,53.32 119.1,119.1 0,65.78 -53.32,119.1 -119.1,119.1 -65.77,0 -119.1,-53.31 -119.1,-119.1 0,-65.77 53.32,-119.1 119.1,-119.1zm277.08 -26.21l2.51 8.02 -2.16 -8.02 -0.35 0z"/>
     </g>
    </g>
    <path class="fil2" d="M762.43 0l451.63 0 -1009.8 2795.72c-123.29,-86.64 -204.26,-229.9 -204.26,-391.17l0 -293.68 762.43 -2110.87zm903.26 0l451.63 0 -1041.1 2882.41 -451.64 0 1041.11 -2882.41zm893.87 25.99c163.61,56.55 287.65,199.86 316.44,374.24l-896.54 2482.18 -451.63 0 1031.73 -2856.42zm322.83 1606.95l0 771.61c0,253.82 -200.55,463.02 -451.02,477.07l451.02 -1248.69zm-2882.4 -772.42l0 -382.67c0,-199.31 123.67,-371.09 298.05,-442.5l-298.05 825.17z"/>
    <path class="fil3" d="M4685.84 1351.33c-20.66,-340.84 -315.01,-614.54 -668.76,-614.54l-766.88 0 0 457.04 766.88 0c85.2,0 157.5,58.09 175.58,134.26 -389.89,0 -296.94,0 -679.08,0 -142.03,0 -268.54,54.23 -364.08,142.03 -196.23,196.24 -196.23,534.49 0,728.14 95.54,90.38 222.06,144.61 364.08,144.61 307.26,0 253.04,0 658.43,0 147.19,0 271.11,-54.22 364.07,-144.61 90.37,-90.36 149.77,-214.3 149.77,-348.58 0,-167.83 0,-333.09 0,-498.34zm-1136.12 578.39c-157.51,0 -157.51,-232.39 0,-232.39 312.43,0 317.6,0 663.59,0l0 116.19c0,67.13 -54.22,116.2 -118.78,116.2 -392.48,0 -253.05,0 -544.82,0zm2131.54 -1221.33c-438.96,0 -865,351.17 -865,826.27 0,451.87 400.22,826.27 865,826.27 111.02,0 222.05,-23.25 320.17,-61.97l0 160.09c0,98.12 -80.04,180.74 -180.74,180.74l-759.14 0 0 482.85 759.14 0c364.07,0 663.59,-299.52 663.59,-663.59l0 -229.82 -338.25 0c224.64,-149.76 395.06,-400.22 395.06,-694.57 0,-322.76 -206.58,-614.54 -503.51,-751.39l446.7 0 0 -376.98 -513.84 0 0 353.75c-90.37,-36.16 -188.49,-51.64 -289.18,-51.64zm0 485.43c185.9,0 371.81,136.85 371.81,340.84 0,193.65 -175.58,340.83 -371.81,340.83 -185.92,0 -379.57,-134.27 -379.57,-340.83 0,-196.25 183.32,-340.84 379.57,-340.84zm2394.89 1149.03l0 -919.23c0,-276.27 431.21,-276.27 431.21,0l0 919.23 482.85 0 0 -919.23c0,-681.66 -756.56,-857.25 -1156.78,-534.49 -400.22,-322.76 -1161.94,-147.18 -1161.94,534.49l0 919.23 488.01 0 0 -919.23c0,-276.27 428.63,-276.27 428.63,0l0 919.23 5.17 0 480.25 0 2.59 0zm2691.85 -991.52c-20.66,-340.84 -315.01,-614.54 -668.76,-614.54l-766.87 0 0 457.04 766.87 0c85.21,0 157.51,58.09 175.58,134.26 -389.89,0 -296.93,0 -679.08,0 -142.02,0 -268.54,54.23 -364.08,142.03 -196.23,196.24 -196.23,534.49 0,728.14 95.54,90.38 222.07,144.61 364.08,144.61 307.27,0 253.05,0 658.43,0 147.19,0 271.12,-54.22 364.07,-144.61 90.38,-90.36 149.77,-214.3 149.77,-348.58 0,-167.83 0,-333.09 0,-498.34zm-1136.12 578.39c-157.5,0 -157.5,-232.39 0,-232.39 312.44,0 317.6,0 663.59,0l0 116.19c0,67.13 -54.22,116.2 -118.78,116.2 -392.47,0 -253.04,0 -544.82,0z"/>
    <path class="fil3" d="M10590.97 383.49c-99.27,0 -174.83,77.03 -174.83,174.32 0,97.29 75.56,174.32 173.83,174.32 98.28,0 174.83,-77.03 174.83,-175.31 0,-98.28 -74.58,-173.33 -173.83,-173.33zm-1 326.43c-85.92,0 -150.63,-67.16 -150.63,-152.11 0,-84.95 64.7,-152.11 151.63,-152.11 86.91,0 150.62,65.18 150.62,151.12 0,85.93 -65.67,153.09 -151.62,153.09zm89.39 -183.71c0,-40.99 -30.13,-67.16 -80,-67.16l-79.01 0 0 197.54 33.58 0 0 -63.21 45.44 0 8.4 0 40.99 63.21 34.08 0 -44.95 -69.13c26.18,-9.88 41.49,-31.12 41.49,-61.24zm-82.47 39.52l-43.46 0 0 -78.53 43.46 0c31.61,0 49.88,13.83 49.88,39.02 0,25.19 -18.27,39.52 -49.88,39.52z"/>
    <path class="fil1" d="M1833.93 1228.08c124.5,-35.37 282.4,30.43 282.4,197.46l0 917.36 481.86 0 0 -917.36c0,-517.71 -437.24,-742.8 -822.29,-678.87 -0.27,-6.69 -0.7,-12.95 -0.62,-20.41 0.06,-4.88 0.82,-8.21 0.82,-14.12 -0.01,-5.44 0.03,-10.08 -0.55,-14.4 -1.33,-9.47 0.62,-20.25 0.55,-28.9 -0.04,-10.48 -0.78,-18.16 -0.78,-28.33 0,-10.19 1.99,-22.64 0.45,-32.74 -0.71,-4.72 -0.91,-10.9 -0.35,-15.97 1.31,-11.64 -0.15,-26.4 -0.1,-37.9 0,-8.09 0.78,-13.6 0.78,-22.06 0,-11.55 -1.68,-23.43 -0.23,-34.06 1.46,-10.45 -0.55,-23.75 -0.55,-34.46 0,-11.5 1.72,-23.02 0.23,-34.05 -0.51,-3.52 -0.49,-13.38 -0.19,-17.07 0.95,-11.58 -0.02,-25.21 -0.04,-37.05 -0.04,-7.22 0.78,-12.54 0.78,-20.46 0,-11.54 -1.68,-23.43 -0.23,-34.07 0.78,-5.57 0.58,-168.35 0.21,-320.66l-64.53 0 0 790.87c-2.16,0.18 -1.72,0.05 -3.16,0.78l-13.71 -49.28c-0.69,-2.73 -1.28,-4.71 -1.85,-6.8 -0.82,-2.9 -1.5,-4.44 -2.2,-7.26 -0.7,-2.86 -0.8,-4.36 -1.69,-6.97 -1.14,-3.27 -1.21,-3.8 -1.87,-7.57l-9.99 -34.11c-0.81,-3.2 -1.65,-4.69 -2.37,-7.06 -1.61,-5.11 -0.45,-4.08 -2.95,-10.43l-8.74 -31.42c-0.91,-3.01 -1.33,-3.54 -1.86,-6.8l-8.17 -27.28c-1.57,-4.74 -2.24,-9.48 -3.85,-14.23 -1.02,-3.01 -0.88,-3.8 -1.57,-7.12 -0.72,-3.81 -1.17,-3.05 -2.95,-5.72l-44.09 -0.54c-1.9,0.02 -2.4,0.54 -5.51,0.54l-19.68 0c-3.09,0 -3.58,-0.52 -5.5,-0.52 -1.93,0 -2.41,0.54 -5.51,0.52l-9.46 -0.52c-1.93,0 -2.41,0.52 -5.52,0.52l-29.89 0c-3.8,0 -5.39,-0.69 -7.89,-0.69 -2.5,0 -4.06,0.69 -7.87,0.69l-16.52 0c-3.13,0 -3.59,-0.52 -5.51,-0.52 -1.92,0 -2.42,0.52 -5.54,0.52l-33.05 0c-3.02,0 -2.51,-0.48 -4.63,-0.43l-40.25 0.43c-3.1,0 -3.6,-0.52 -5.5,-0.52 -1.92,0 -2.43,0.54 -5.52,0.52 -4.4,0 -8,-0.72 -11.99,-0.22 -3.06,0.38 -6.13,0.24 -9.26,0.22l-127.54 0c-3.08,4.6 -3.15,8 -4.8,13.32l-10.46 36.5c-0.5,0.96 -1.02,1.57 -1.57,3.43 -0.64,2.16 -0.76,4.1 -1.21,6.29l-0.05 0.14 -0.03 0.12 -3.31 11.52 -6.78 23.31c-1.58,3.61 -1.98,6.8 -2.89,10.41l-0.05 0.21 -0.77 2.7 -0.06 0.24 -0.07 0.22c-0.4,1.19 -0.7,2.32 -0.99,3.43l-0.04 0.21 -3.86 13.43 -0.09 0.3 -0.11 0.33 -0.07 0.3 -0.09 0.34 -0.11 0.31 -0.07 0.31 -0.1 0.31 -0.08 0.32 -3.45 12.04 -0.93 2.18c-1.53,3.36 -0.9,3.12 -1.31,5.62l-1.13 3.92c-0.44,0.85 -0.9,1.24 -1.53,3.79l-5.22 19.81 -3.7 12.86c-0.07,0.1 -0.21,0.31 -0.6,1.14 -1.34,2.98 -0.81,3.94 -1.72,6.91 -0.91,2.88 -1.29,3.06 -2.01,6.67l-0.32 1.54 -1.81 6.24c-0.72,1.67 -1.72,3.17 -3.18,4.24 -2.21,-9.43 -0.78,-25.89 -0.78,-37l0 -747.57 -63.79 0 0 746.4c-386.06,-63.02 -825.11,162.15 -825.11,679.14l0 478.75 487.03 0 0 -478.75c0,-165.7 154.49,-231.8 277.8,-198.34l-13.85 48.31c-0.62,1.86 -1.05,3.26 -1.27,4.4l0 0.07c-0.62,3.13 0.36,4.6 3.52,10.26l8.01 14.03c5.08,7.63 12.42,19.16 19.47,30.61l143.57 253.99c-0.2,30.9 -0.71,106.63 0.12,113.54 0.38,3.24 1.65,4.54 2.5,8.53 3.79,18.07 19.72,35.65 36.21,42.51 8.23,3.43 17.43,5.73 27.36,5.73l62.36 -0.25c2.86,0.36 5.57,0.25 8.48,0.25 4.88,-0.01 31.22,-1.31 33.24,1.4 2.2,2.93 1.73,27.12 2.23,33.19 0.37,4.38 0.96,11.63 1.42,15.91 0.91,8.68 1.54,23.28 3.91,30.7l3.56 14.56c1.56,4.7 2.39,8.72 3.96,13.37l20.8 45.33c3.74,7.32 11.09,15.9 16.37,22.23 5.33,6.42 11.56,12.07 17.44,17.98 6.53,6.56 14.94,11.52 21.92,17.44l38.01 27.32c10.27,8.63 19.84,19.17 26.96,30.52l4.68 7.92c9.72,16.95 6.15,14.25 10.2,24.44 2.04,5.09 2.21,8.83 3.68,13.67 2.58,8.5 1.84,19.67 1.82,28.87 0.02,8.11 -3.85,23.53 -7.22,31.34 -3.49,8.17 -8.63,16.72 -14.19,23.6 -5.55,6.84 -12.38,13.2 -19.62,18.16 -5.29,3.63 -9.68,6.86 -15.87,9.31l-22.98 8.55c-1.39,0.38 -4.55,0.8 -5.37,0.92 -23.27,3.72 -50.33,4.99 -72.25,-5.23 -1.96,-0.91 -3.23,-0.98 -5.36,-1.73 -10.07,-3.56 -26.37,-15.78 -33.14,-23.52l-4.04 -4.63c-0.11,-0.13 -0.28,-0.29 -0.39,-0.41l-1.98 -1.96c-6.56,-7.43 -15.71,-20.31 -19.68,-29.12 -1.57,-3.5 -2.94,-5.77 -5.21,-8.95 -4.29,-6.12 -7.76,-16.77 -11.43,-24.02l-17.05 -38.86c-0.97,-2.34 -1.02,-1.78 -2.09,-4.2 -4.88,-10.82 -12.1,-27.15 -19.01,-36.88 -1.21,-1.71 -1.62,-2.6 -2.81,-4.29 -6.15,-8.63 -14.51,-19.64 -23.44,-25.36 -12.6,-8.14 -26.46,-14.22 -41.68,-14.22 -9.82,0.02 -19.42,-0.57 -27.81,4.48 -13.33,8.07 -8.88,28.06 -6.83,40.4 0.58,3.57 1.14,5.6 2,9.03 2.96,11.89 7.24,23.21 9.72,35.14l6.73 27.13c0.74,3.5 0.31,6.93 1.03,9.97 0.9,3.88 1.34,4.73 1.84,9.21 0.67,6.11 1.54,13.76 1.51,20.53 -0.09,14.34 1.47,27.9 2.35,42.52l4.54 29.34c0.87,3.7 1.41,4.41 2.09,8.9 0.18,1.07 0.52,3.63 0.81,4.7l5.76 17.09c0.62,1.68 1.1,2.4 1.64,3.85 2.01,5.19 3.17,11.24 5.68,16.37l12.97 25.62 20.61 29.78c8.05,10.87 17.97,20.51 27.85,29.62 0.14,0.11 0.29,0.25 0.42,0.38l37.02 27.51c2.72,1.46 4.28,2.76 6.72,4.32 4.66,2.98 10.35,5.01 15.16,7.68l7.32 3.68c10.01,5.09 21.17,8.49 31.71,12.38 2.82,1.05 5.4,1.36 8.38,2.67 3.92,1.71 5.34,0.9 8.97,2.04 2.96,0.95 1.22,1.01 4.38,1.92l33.18 5.42c7.15,0.87 10.83,2.13 19.9,2.1 4.75,0.03 5.7,0.79 10.2,0.87l21.28 -0.07c18.54,0 61.09,-5.34 80.97,-12.66l12.24 -4.31c7.09,-2.03 17.93,-5.44 24.02,-9.06 1.83,-1.09 3.82,-1.87 5.74,-2.91 3.8,-2.06 7.49,-3.19 11.37,-5.14 2.66,-1.35 2.65,-1.7 5.68,-3.01 3.81,-1.64 6.99,-4.57 10.57,-6.76l10.27 -6.28c2.11,-1.32 3.03,-2.15 5.1,-3.54 6.24,-4.26 13.01,-9.28 18.46,-14.6 3.15,-3.04 5.69,-4.83 8.65,-7.88l12.27 -12.93c0.1,-0.13 0.26,-0.3 0.37,-0.41l11.71 -13.5c8.28,-11.34 13.3,-17.93 20.28,-30.1l16.21 -34.19 11.2 -38.41c1.93,-12.62 1.73,-5.5 3.44,-22.51 0.18,-1.75 0.98,-5.04 1.25,-6.6 2.68,-15.02 1.81,-33.6 1.81,-49.41l-0.78 -17.32c0.07,-7.8 -1.68,-10.68 -2.28,-16.63 -0.71,-7.24 -0.44,-11.06 -2.15,-17.53 -0.76,-2.96 -0.9,-4.78 -1.56,-7.87 -2.09,-9.89 -4.64,-20.95 -8.2,-30.4 -2.89,-7.76 -11.86,-30.55 -15.77,-36.96l-5.44 -8.75c-7.1,-11.79 -14.4,-22.93 -23.22,-33.48l-2.71 -2.78c-0.71,-0.74 -1.5,-1.59 -2.27,-2.46l-23.61 -23.61 -26.27 -21.76c-2.13,-1.6 -3.53,-2.18 -5.61,-3.84l-33.65 -24.64c-3.79,-2.88 -7.25,-4.64 -11.35,-7.49l-21.39 -16.43c-16.41,-12.91 -30.59,-26.83 -42.85,-43.76 -4.58,-6.3 -6.13,-11.13 -8.84,-14.77l-8.94 -24.13c-0.74,-3.2 -1.65,-4.54 -1.89,-7.54 1.65,-1.1 1.17,-1.36 3.55,-1.88l35.8 0.31c3.03,0 2.51,-0.52 4.61,-0.47 1.02,0.02 2.12,0.47 4.07,0.46l36.99 0.01c3,0 2.52,-0.52 4.63,-0.47 15.13,0.35 28.47,-0.12 41.47,-7.77 18.54,-10.93 20.74,-16.87 30.17,-35.17 0.63,-1.2 0.63,-0.56 1.29,-2.63 6.14,-19.39 0.69,-133.07 2.91,-144.31 0.48,-2.36 9.69,-17.6 12.29,-21.54l16.34 -26.99c1.13,-1.85 2.22,-3.64 3.37,-5.29l32.86 -52.96c3.19,-4.45 6.04,-11.08 9.66,-16.31l9.71 -16.27c1.06,-2 1.88,-3.61 3.22,-5.46l61.03 -98.75c0.4,-0.75 0.71,-1.75 1.19,-2.75 3.33,-6.71 7.97,-12.5 11.66,-19.06l3.3 -5.37c6.49,-11.11 9.03,-12.11 7.2,-20.27 -2.22,-9.6 -8.15,-25.27 -9.61,-33.73 -0.97,-5.67 -2.4,-7.86 -3.82,-13.5 -0.28,-1.13 -0.52,-1.91 -0.76,-2.51zm-392.73 -320.48c65.78,0 119.1,53.32 119.1,119.11 0,65.77 -53.31,119.09 -119.1,119.09 -65.77,0 -119.1,-53.31 -119.1,-119.09 0,-65.78 53.32,-119.11 119.1,-119.11zm277.08 -26.21l2.51 8.02 -2.16 -8.02 -0.35 0z"/>
   </g>
  </g>
 </g>
</svg>
